<?xml version="1.0" standalone="no"?>
<!DOCTYPE svg PUBLIC "-//W3C//DTD SVG 20010904//EN"
 "http://www.w3.org/TR/2001/REC-SVG-20010904/DTD/svg10.dtd">
<svg version="1.0" xmlns="http://www.w3.org/2000/svg"
 width="64.000000pt" height="64.000000pt" viewBox="0 0 64.000000 64.000000"
 preserveAspectRatio="xMidYMid meet">

<g transform="translate(0.000000,64.000000) scale(0.100000,-0.100000)"
fill="currentColor" stroke="none">
<path d="M157 624 c-14 -14 -7 -49 11 -61 29 -18 48 0 36 34 -9 27 -33 41 -47
27z"/>
<path d="M442 618 c-14 -14 -16 -54 -3 -62 5 -3 19 2 31 12 17 13 21 24 16 40
-8 24 -26 28 -44 10z"/>
<path d="M108 543 c-37 -40 -68 -94 -68 -120 0 -25 43 -53 81 -53 16 0 20 5
16 19 -3 12 1 18 12 17 9 -1 15 6 15 17 -1 9 5 17 13 17 9 0 13 6 10 14 -3 8
1 13 11 12 29 -2 24 31 -11 68 -19 20 -39 36 -44 36 -5 0 -21 -12 -35 -27z"/>
<path d="M228 558 c-31 -11 -35 -20 -14 -37 11 -9 25 -9 60 0 36 9 56 9 93 -1
42 -12 47 -12 60 6 13 17 11 20 -14 31 -34 15 -147 15 -185 1z"/>
<path d="M446 529 c-39 -43 -42 -64 -8 -63 13 0 18 -4 15 -13 -3 -7 2 -13 11
-13 9 0 13 -6 10 -14 -7 -19 26 -56 49 -56 24 0 77 31 77 45 -1 38 -82 155
-108 155 -5 0 -26 -18 -46 -41z"/>
<path d="M44 369 c-4 -7 -7 -42 -7 -78 0 -160 107 -271 271 -279 63 -4 79 -1
127 22 108 54 173 165 163 282 -5 64 -9 69 -38 54 -12 -6 -19 -14 -16 -17 3
-4 1 -12 -5 -19 -9 -11 -16 -11 -40 1 -75 39 -284 39 -360 0 -33 -18 -49 -13
-49 15 0 10 -7 21 -16 24 -21 8 -22 8 -30 -5z m302 -57 c43 -29 30 -94 -20
-100 -33 -4 -66 22 -66 51 0 42 53 72 86 49z m-169 -87 c56 -26 88 -66 99
-123 8 -43 3 -47 -41 -32 -48 16 -101 63 -126 111 -37 74 -20 86 68 44z m365
0 c-8 -47 -54 -106 -105 -135 -29 -17 -59 -29 -67 -27 -36 7 7 117 57 148 66
41 120 47 115 14z"/>
</g>
</svg>
