<?xml version="1.0" standalone="no"?>
<!DOCTYPE svg PUBLIC "-//W3C//DTD SVG 20010904//EN"
 "http://www.w3.org/TR/2001/REC-SVG-20010904/DTD/svg10.dtd">
<svg version="1.0" xmlns="http://www.w3.org/2000/svg"
 width="256.000000pt" height="256.000000pt" viewBox="0 0 256.000000 256.000000"
 preserveAspectRatio="xMidYMid meet">

<g transform="translate(0.000000,256.000000) scale(0.100000,-0.100000)"
fill="#ffffff" stroke="none">
<path d="M497 2553 c-2 -5 -4 -49 -4 -98 -1 -88 0 -91 25 -103 36 -17 49 -15
89 9 31 19 35 26 30 54 -9 57 -35 104 -69 125 -34 20 -64 26 -71 13z"/>
<path d="M1976 2528 c-35 -26 -56 -74 -56 -126 0 -36 3 -40 39 -57 39 -17 41
-17 73 2 19 12 31 26 29 34 -2 8 -4 49 -3 92 l2 77 -28 0 c-15 0 -40 -10 -56
-22z"/>
<path d="M1150 2510 c-178 -13 -416 -90 -533 -172 l-28 -20 64 -64 64 -65 94
45 c102 49 205 79 327 96 99 13 319 -2 412 -29 80 -22 214 -76 243 -96 34 -24
47 -19 110 47 69 73 73 65 -68 133 -162 79 -282 113 -445 125 -63 5 -119 9
-125 8 -5 0 -57 -4 -115 -8z"/>
<path d="M390 2328 c-76 -38 -181 -161 -248 -293 -27 -53 -36 -82 -36 -122 0
-48 3 -57 39 -94 69 -72 256 -149 319 -131 78 22 59 75 -58 165 -102 78 -160
127 -155 132 7 6 140 -89 211 -151 78 -68 111 -79 141 -46 46 51 8 106 -148
215 -112 78 -144 106 -123 107 9 0 53 -28 99 -62 45 -35 94 -72 108 -82 14
-11 43 -35 63 -53 30 -26 42 -31 60 -24 28 10 51 54 43 81 -3 11 -51 50 -106
86 -55 37 -121 87 -147 111 l-47 44 45 -27 c25 -15 73 -49 107 -76 85 -65 137
-92 168 -84 19 5 25 13 25 33 0 60 -140 228 -222 265 -59 27 -92 29 -138 6z"/>
<path d="M2052 2329 c-65 -25 -161 -112 -214 -194 -49 -74 -49 -109 0 -113 37
-4 76 17 164 88 31 25 76 56 100 68 l43 23 -49 -43 c-27 -24 -92 -72 -145
-108 -86 -58 -96 -69 -99 -99 -4 -37 20 -71 50 -71 10 0 37 17 61 38 54 50
205 166 235 181 13 7 26 11 28 8 7 -6 -77 -75 -170 -138 -118 -80 -153 -141
-108 -182 34 -31 67 -21 139 41 98 83 143 117 183 136 l35 17 -35 -32 c-19
-17 -66 -55 -105 -84 -131 -99 -154 -143 -90 -174 41 -20 113 -3 222 51 156
78 181 145 110 288 -55 111 -154 240 -213 277 -68 43 -81 45 -142 22z"/>
<path d="M112 1766 c-23 -50 -61 -173 -77 -251 -24 -110 -24 -338 -1 -468 54
-300 227 -581 476 -771 165 -126 372 -216 570 -247 117 -19 340 -17 438 4 399
87 725 340 895 695 68 144 77 168 108 327 19 95 21 130 15 260 -6 164 -20 236
-67 365 -42 113 -44 115 -83 86 -17 -13 -50 -33 -73 -45 -24 -12 -43 -26 -43
-31 0 -5 9 -33 20 -62 11 -29 29 -99 40 -156 91 -469 -152 -947 -590 -1162
-111 -54 -228 -87 -370 -105 -103 -14 -125 -13 -220 1 -263 41 -449 133 -626
309 -135 135 -219 269 -273 439 -69 214 -67 455 4 663 28 81 30 93 13 93 -7 0
-41 18 -76 40 -34 22 -64 40 -66 40 -1 0 -8 -11 -14 -24z"/>
<path d="M1155 1619 c-186 -14 -298 -46 -490 -139 -126 -61 -181 -80 -230 -80
-54 0 -108 21 -144 57 -21 21 -38 30 -43 25 -6 -6 -15 -62 -20 -126 -13 -138
-7 -154 42 -112 116 97 300 -85 340 -337 14 -82 9 -156 -11 -200 -17 -37 -68
-67 -113 -67 -20 0 -36 -5 -36 -11 0 -36 286 -279 311 -263 4 2 -4 30 -18 61
-41 89 -31 176 26 220 27 21 132 51 218 64 52 7 170 9 330 6 332 -6 436 -29
495 -108 29 -38 27 -113 -5 -182 -15 -32 -22 -59 -16 -63 20 -12 145 83 252
191 31 33 57 64 57 71 0 6 -20 14 -46 17 -115 13 -150 137 -94 337 36 132 103
231 184 269 57 28 98 27 134 -4 51 -43 56 -36 49 73 -8 115 -17 172 -27 172
-5 0 -23 -15 -42 -34 -42 -42 -104 -60 -173 -51 -30 4 -108 34 -195 74 -80 38
-174 78 -210 89 -139 45 -338 64 -525 51z m263 -168 c65 -33 118 -87 149 -149
23 -48 28 -70 28 -137 0 -67 -5 -89 -28 -137 -55 -111 -163 -179 -290 -180
-59 -1 -85 4 -128 24 -76 36 -133 89 -166 156 -37 76 -39 190 -4 270 30 66
111 142 177 165 70 24 204 18 262 -12z"/>
<path d="M1160 1440 c-162 -60 -235 -272 -145 -425 63 -108 194 -166 323 -143
180 32 288 225 222 401 -24 64 -88 132 -150 160 -66 30 -180 33 -250 7z"/>
</g>
</svg>
