<?xml version="1.0" standalone="no"?>
<!DOCTYPE svg PUBLIC "-//W3C//DTD SVG 20010904//EN"
        "http://www.w3.org/TR/2001/REC-SVG-20010904/DTD/svg10.dtd">
<svg version="1.0" xmlns="http://www.w3.org/2000/svg"
     width="512.000000pt" height="512.000000pt" viewBox="0 0 512.000000 512.000000"
     preserveAspectRatio="xMidYMid meet">

    <g transform="translate(0.000000,512.000000) scale(0.100000,-0.100000)"
       fill="#ffffff" stroke="none">
        <path d="M1777 4099 c-9 -5 -26 -28 -37 -50 -17 -32 -20 -55 -18 -122 l3 -82
41 -20 c22 -11 61 -37 86 -57 25 -21 51 -38 59 -38 8 1 32 13 54 28 l40 28 0
90 c0 108 -19 158 -76 203 -31 25 -47 31 -86 31 -26 0 -56 -5 -66 -11z"/>
        <path d="M3150 4061 c-53 -56 -70 -104 -70 -201 0 -56 3 -65 31 -91 52 -48 72
-48 140 5 32 25 63 46 68 46 4 0 20 9 35 21 23 18 26 28 26 78 0 67 -21 135
-52 168 -17 19 -32 23 -76 23 -53 0 -57 -2 -102 -49z"/>
        <path d="M2355 3825 c-38 -9 -104 -23 -145 -31 -74 -16 -223 -68 -247 -87 -7
-5 -13 -15 -13 -22 0 -20 118 -173 138 -179 11 -4 39 2 63 12 215 91 487 111
659 47 19 -7 64 -21 100 -31 36 -10 70 -21 75 -25 6 -5 22 2 37 14 36 31 118
143 118 161 0 29 -107 74 -255 107 -49 11 -110 25 -135 31 -75 18 -315 20
-395 3z"/>
        <path d="M1615 3781 c-52 -31 -265 -279 -265 -308 0 -3 -17 -29 -38 -57 -21
-28 -49 -73 -61 -101 -13 -27 -29 -61 -36 -75 -21 -43 -55 -149 -55 -173 1
-71 91 -139 294 -221 47 -19 175 -21 198 -3 23 17 41 92 29 116 -6 10 -33 36
-61 56 -28 21 -49 39 -47 42 4 4 69 -29 114 -57 16 -10 33 -11 69 -4 40 7 50
14 58 36 13 37 -16 100 -60 130 -33 22 -43 38 -25 38 4 0 21 -10 35 -21 38
-30 103 -30 128 1 26 32 22 61 -15 106 -62 75 -62 78 5 30 64 -45 69 -47 106
-37 52 14 81 48 88 102 5 42 2 48 -60 135 -69 97 -197 233 -249 265 -41 24
-112 25 -152 0z"/>
        <path d="M3351 3789 c-44 -17 -119 -85 -200 -180 -45 -52 -81 -98 -81 -103 0
-4 -13 -24 -30 -43 -63 -71 -20 -169 82 -188 30 -6 41 -1 85 34 28 22 54 45
58 51 3 5 11 10 17 10 6 0 -15 -29 -46 -64 -31 -35 -56 -71 -56 -79 0 -23 38
-64 64 -69 13 -3 39 2 58 9 79 35 81 34 29 -15 -45 -42 -51 -53 -51 -88 0 -48
19 -69 70 -77 27 -3 44 2 75 22 43 29 75 44 75 35 0 -3 -23 -26 -51 -52 l-51
-47 13 -45 c7 -25 17 -51 22 -57 13 -18 160 -17 200 1 18 7 57 24 87 36 71 29
126 64 173 108 32 31 37 42 37 82 0 25 -6 54 -13 65 -8 11 -17 34 -20 51 -20
102 -179 355 -309 489 -32 33 -58 63 -58 67 0 4 -17 19 -37 33 -40 26 -97 32
-142 14z"/>
        <path d="M3825 2890 c-7 -11 -109 -60 -125 -60 -6 0 -19 -9 -30 -20 -16 -16
-18 -25 -10 -45 16 -42 12 -78 -15 -117 -41 -61 -72 -59 -205 12 -171 92 -451
146 -810 157 -173 5 -233 2 -485 -27 -146 -17 -296 -49 -348 -76 -16 -8 -33
-14 -39 -14 -6 0 -57 -23 -113 -51 -116 -58 -133 -59 -185 -7 -31 32 -32 35
-26 95 6 68 6 67 -64 102 -93 47 -102 51 -116 51 -24 0 -42 -42 -63 -140 -71
-346 -35 -633 120 -942 137 -275 428 -544 703 -649 28 -11 60 -24 71 -28 43
-19 94 -33 195 -51 189 -35 551 -21 655 25 17 7 57 22 90 34 99 33 173 71 311
161 74 47 274 240 317 305 15 22 44 64 64 92 75 104 168 322 180 418 3 28 9
55 13 60 19 25 31 261 20 384 -21 234 -70 387 -105 331z m-1192 -309 c53 -12
124 -75 161 -142 82 -147 -8 -349 -175 -389 -57 -14 -141 -8 -194 14 -93 39
-162 166 -152 278 3 33 10 65 16 71 6 6 11 17 11 24 0 36 108 131 165 146 34
8 128 7 168 -2z m-948 -382 c55 -17 114 -36 130 -44 133 -59 173 -79 228 -116
34 -23 83 -68 110 -101 51 -65 138 -236 157 -308 6 -25 17 -61 24 -80 18 -47
28 -158 18 -195 -10 -36 -34 -42 -112 -25 -58 12 -71 17 -190 71 -177 80 -374
250 -470 404 -48 77 -47 74 -111 212 -23 48 -52 180 -45 199 12 31 124 24 261
-17z m1976 15 c10 -12 10 -26 2 -62 -21 -90 -33 -133 -42 -150 -5 -9 -19 -37
-32 -62 -130 -263 -312 -434 -596 -563 -45 -20 -88 -37 -95 -37 -7 0 -32 -7
-54 -15 -31 -10 -51 -12 -78 -4 -33 9 -36 13 -38 47 -7 143 67 358 187 547 31
47 81 92 160 142 60 38 221 109 314 138 123 38 248 47 272 19z"/>
    </g>
</svg>
